<!--?xml version="1.0" standalone="no"?-->
              <svg id="sw-js-blob-svg" viewBox="0 0 100 100" xmlns="http://www.w3.org/2000/svg" version="1.1">
                    <defs> 
                        <linearGradient id="sw-gradient" x1="0" x2="1" y1="1" y2="0">
                            <stop id="stop1" stop-color="rgba(24, 144, 255, 1)" offset="0%"></stop>
                            <stop id="stop2" stop-color="rgba(118.285, 189.306, 255, 1)" offset="100%"></stop>
                        </linearGradient>
                    </defs>
                <path fill="url(#sw-gradient)" d="M14.1,-20.3C21.6,-17.1,33.4,-18.9,37.6,-15.5C41.7,-12.1,38.3,-3.5,34.3,2.9C30.2,9.3,25.4,13.6,20.8,16.7C16.1,19.7,11.5,21.5,5.7,26.4C0,31.3,-6.9,39.2,-11.7,38.4C-16.4,37.6,-18.9,28.1,-21.7,21C-24.4,13.8,-27.4,9.1,-26.6,4.8C-25.7,0.4,-21.1,-3.5,-20.4,-11.1C-19.7,-18.7,-23.1,-29.9,-20.3,-35.2C-17.6,-40.6,-8.8,-40,-2.8,-35.8C3.3,-31.5,6.6,-23.4,14.1,-20.3Z" width="100%" height="100%" transform="translate(50 50)" stroke-width="0" style="transition: all 0.3s ease 0s;" stroke="url(#sw-gradient)"></path>
              </svg>