<!--?xml version="1.0" standalone="no"?-->
              <svg id="sw-js-blob-svg" viewBox="0 0 100 100" xmlns="http://www.w3.org/2000/svg" version="1.1">
                    <defs> 
                        <linearGradient id="sw-gradient" x1="0" x2="1" y1="1" y2="0">
                            <stop id="stop1" stop-color="rgba(0, 21, 41, 1)" offset="0%"></stop>
                            <stop id="stop2" stop-color="rgba(12.582, 76.807, 137.973, 1)" offset="100%"></stop>
                        </linearGradient>
                    </defs>
                <path fill="url(#sw-gradient)" d="M20.3,-24.4C28,-17.6,37.2,-12.9,38.3,-6.8C39.4,-0.6,32.4,7,27,14.9C21.6,22.7,17.9,30.8,11.1,35.2C4.4,39.7,-5.4,40.6,-12.3,36.8C-19.2,32.9,-23.2,24.3,-28.5,16.1C-33.7,7.8,-40.1,-0.2,-40.4,-8.6C-40.7,-17,-34.8,-25.8,-27.1,-32.5C-19.3,-39.3,-9.7,-44.1,-1.7,-42.1C6.3,-40.1,12.5,-31.2,20.3,-24.4Z" width="100%" height="100%" transform="translate(50 50)" stroke-width="0" style="transition: all 0.3s ease 0s;" stroke="url(#sw-gradient)"></path>
              </svg>